<?xml version="1.0" encoding="UTF-8" standalone="no"?>
<!-- Generator: Adobe Illustrator 16.0.4, SVG Export Plug-In . SVG Version: 6.00 Build 0)  -->

<svg
   xmlns:dc="http://purl.org/dc/elements/1.1/"
   xmlns:cc="http://creativecommons.org/ns#"
   xmlns:rdf="http://www.w3.org/1999/02/22-rdf-syntax-ns#"
   xmlns:svg="http://www.w3.org/2000/svg"
   xmlns="http://www.w3.org/2000/svg"
   xmlns:sodipodi="http://sodipodi.sourceforge.net/DTD/sodipodi-0.dtd"
   xmlns:inkscape="http://www.inkscape.org/namespaces/inkscape"
   version="1.1"
   id="Capa_1"
   x="0px"
   y="0px"
   width="16"
   height="16"
   viewBox="0 0 16 15.999999"
   enable-background="new 0 0 216 146"
   xml:space="preserve"
   inkscape:version="0.48.5 r10040"
   sodipodi:docname="menu16x16.svg"><metadata
     id="metadata23"><rdf:RDF><cc:Work
         rdf:about=""><dc:format>image/svg+xml</dc:format><dc:type
           rdf:resource="http://purl.org/dc/dcmitype/StillImage" /><dc:title></dc:title></cc:Work></rdf:RDF></metadata><defs
     id="defs21" /><sodipodi:namedview
     pagecolor="#ffffff"
     bordercolor="#666666"
     borderopacity="1"
     objecttolerance="10"
     gridtolerance="10"
     guidetolerance="10"
     inkscape:pageopacity="0"
     inkscape:pageshadow="2"
     inkscape:window-width="789"
     inkscape:window-height="480"
     id="namedview19"
     showgrid="false"
     fit-margin-top="0"
     fit-margin-left="0"
     fit-margin-right="0"
     fit-margin-bottom="0"
     inkscape:zoom="11.222222"
     inkscape:cx="4.6136821"
     inkscape:cy="8.101193"
     inkscape:window-x="0"
     inkscape:window-y="27"
     inkscape:window-maximized="0"
     inkscape:current-layer="Capa_1" /><path
     style="fill:#9d9d9d;fill-opacity:1"
     inkscape:connector-curvature="0"
     id="path5"
     d="M 15.580383,0.53405372 C 15.300603,0.17797127 14.964274,-2.2413e-7 14.571507,-2.2413e-7 H 1.4286027 C 1.035726,-2.2413e-7 0.69939725,0.17797127 0.41961643,0.53405372 0.13983562,0.89027566 0,1.3181883 0,1.8182101 V 14.181929 c 0,0.500021 0.13983562,0.927795 0.41961643,1.284156 0.27978082,0.356082 0.61610957,0.533914 1.00898627,0.533914 H 14.571507 c 0.392767,0 0.729096,-0.177832 1.008876,-0.533914 C 15.860274,15.109724 16,14.681811 16,14.181929 V 1.8182101 C 16,1.3181883 15.860274,0.89013618 15.580383,0.53405372 z M 14.856986,14.18165 c 0,0.09847 -0.02827,0.18369 -0.08471,0.255659 -0.05644,0.07197 -0.123507,0.107815 -0.200767,0.107815 H 1.4286027 c -0.07737,0 -0.1443287,-0.03585 -0.2008767,-0.107815 C 1.1711781,14.36534 1.1429041,14.28012 1.1429041,14.18165 V 4.7272629 c 0,-0.09847 0.028274,-0.18369 0.084822,-0.2557992 0.056548,-0.07183 0.1235069,-0.107815 0.2008767,-0.107815 H 14.571507 c 0.07726,0 0.144219,0.035845 0.200767,0.107815 0.05655,0.072109 0.08471,0.1573291 0.08471,0.2557992 V 14.18165 z" /></svg>