<?xml version="1.0" encoding="UTF-8" standalone="no"?>
<!-- Generator: Adobe Illustrator 15.1.0, SVG Export Plug-In  -->

<svg
   xmlns:dc="http://purl.org/dc/elements/1.1/"
   xmlns:cc="http://creativecommons.org/ns#"
   xmlns:rdf="http://www.w3.org/1999/02/22-rdf-syntax-ns#"
   xmlns:svg="http://www.w3.org/2000/svg"
   xmlns="http://www.w3.org/2000/svg"
   xmlns:sodipodi="http://sodipodi.sourceforge.net/DTD/sodipodi-0.dtd"
   xmlns:inkscape="http://www.inkscape.org/namespaces/inkscape"
   version="1.1"
   x="0px"
   y="0px"
   width="16"
   height="16"
   viewBox="0 0 16 16"
   style="overflow:visible"
   xml:space="preserve"
   preserveAspectRatio="xMinYMid meet"
   id="svg2"
   inkscape:version="0.48.4 r9939"
   sodipodi:docname="download.svg"><metadata
     id="metadata10"><rdf:RDF><cc:Work
         rdf:about=""><dc:format>image/svg+xml</dc:format><dc:type
           rdf:resource="http://purl.org/dc/dcmitype/StillImage" /><dc:title></dc:title></cc:Work></rdf:RDF></metadata><sodipodi:namedview
     pagecolor="#ffffff"
     bordercolor="#666666"
     borderopacity="1"
     objecttolerance="10"
     gridtolerance="10"
     guidetolerance="10"
     inkscape:pageopacity="0"
     inkscape:pageshadow="2"
     inkscape:window-width="932"
     inkscape:window-height="701"
     id="namedview8"
     showgrid="false"
     inkscape:zoom="3.4766083"
     inkscape:cx="-37.772645"
     inkscape:cy="6.2204863"
     inkscape:window-x="432"
     inkscape:window-y="27"
     inkscape:window-maximized="0"
     inkscape:current-layer="svg2"
     fit-margin-top="0"
     fit-margin-left="0"
     fit-margin-right="0"
     fit-margin-bottom="0" /><defs
     id="defs4" /><path
     style="fill:#999999"
     d="m 7.1353851,16 -7.0591431,0 0,-12.5333333 0,0 L 3.5392179,0 l 0,0 9.8561621,0 0,5.0666667 -1.331914,-1.3333334 0,-2.4 -6.6595688,0 0,4 -3.9957414,0 0,9.3333337 5.3276552,0 C 6.735811,15.2 6.8690023,15.6 7.1353851,16 z"
     id="path6"
     inkscape:connector-curvature="0"
     sodipodi:nodetypes="cccccccccccccccc" /><path
     style="fill:#999999;overflow:visible"
     d="m 0,4.0666665 z m 15.716584,6.6666665 -4.6617,4.8 c -0.532765,0.533334 -1.3319134,0.533334 -1.8646789,0 L 4.5285068,10.6 C 3.9957413,10.066667 4.1289327,9.3999999 4.928081,9.3999999 l 3.0634017,0 0,-4 c 0,-0.6666667 0.6659569,-1.3333334 1.4651051,-1.3333334 l 1.3319142,0 c 0.665956,0 1.198722,0.6666667 1.198722,1.3333334 l 0,4 3.329785,0 c 0.665957,0 0.93234,0.8000001 0.399575,1.3333331 z"
     id="path6-1"
     inkscape:connector-curvature="0"
     sodipodi:nodetypes="ccccccscsssscsc" /></svg>