<?xml version="1.0" encoding="UTF-8" standalone="no"?>
<!-- Generator: Adobe Illustrator 16.0.4, SVG Export Plug-In . SVG Version: 6.00 Build 0)  -->

<svg
   xmlns:dc="http://purl.org/dc/elements/1.1/"
   xmlns:cc="http://creativecommons.org/ns#"
   xmlns:rdf="http://www.w3.org/1999/02/22-rdf-syntax-ns#"
   xmlns:svg="http://www.w3.org/2000/svg"
   xmlns="http://www.w3.org/2000/svg"
   xmlns:sodipodi="http://sodipodi.sourceforge.net/DTD/sodipodi-0.dtd"
   xmlns:inkscape="http://www.inkscape.org/namespaces/inkscape"
   version="1.1"
   id="Capa_1"
   x="0px"
   y="0px"
   width="16"
   height="16"
   viewBox="0 0 16 15.999999"
   enable-background="new 0 0 216 146"
   xml:space="preserve"
   inkscape:version="0.48.5 r10040"
   sodipodi:docname="menu16x16.svg"><metadata
     id="metadata23"><rdf:RDF><cc:Work
         rdf:about=""><dc:format>image/svg+xml</dc:format><dc:type
           rdf:resource="http://purl.org/dc/dcmitype/StillImage" /><dc:title /></cc:Work></rdf:RDF></metadata><defs
     id="defs21" /><sodipodi:namedview
     pagecolor="#ffffff"
     bordercolor="#666666"
     borderopacity="1"
     objecttolerance="10"
     gridtolerance="10"
     guidetolerance="10"
     inkscape:pageopacity="0"
     inkscape:pageshadow="2"
     inkscape:window-width="789"
     inkscape:window-height="480"
     id="namedview19"
     showgrid="false"
     fit-margin-top="0"
     fit-margin-left="0"
     fit-margin-right="0"
     fit-margin-bottom="0"
     inkscape:zoom="1.4027778"
     inkscape:cx="159.64356"
     inkscape:cy="-58.713248"
     inkscape:window-x="0"
     inkscape:window-y="27"
     inkscape:window-maximized="0"
     inkscape:current-layer="Capa_1" /><g
     id="g3"
     transform="matrix(0.10958904,0,0,0.13947609,-3.8356164,-2.1818247)"
     style="fill:#9d9d9d;fill-opacity:1"><path
       d="m 177.171,19.472 c -2.553,-2.553 -5.622,-3.829 -9.206,-3.829 H 48.036 c -3.585,0 -6.654,1.276 -9.207,3.829 C 36.276,22.026 35,25.094 35,28.679 v 88.644 c 0,3.585 1.276,6.652 3.829,9.207 2.553,2.553 5.622,3.828 9.207,3.828 h 119.929 c 3.584,0 6.653,-1.275 9.206,-3.828 2.554,-2.555 3.829,-5.623 3.829,-9.207 V 28.679 c 0,-3.585 -1.275,-6.654 -3.829,-9.207 z m -6.601,97.849 c 0,0.706 -0.258,1.317 -0.773,1.833 -0.515,0.516 -1.127,0.773 -1.832,0.773 H 48.036 c -0.706,0 -1.317,-0.257 -1.833,-0.773 -0.516,-0.516 -0.774,-1.127 -0.774,-1.833 V 49.536 c 0,-0.706 0.258,-1.317 0.774,-1.834 0.516,-0.515 1.127,-0.773 1.833,-0.773 h 119.929 c 0.705,0 1.316,0.257 1.832,0.773 0.516,0.517 0.773,1.128 0.773,1.834 v 67.785 z"
       id="path5"
       inkscape:connector-curvature="0"
       style="fill:#9d9d9d;fill-opacity:1" /><path
       d="m 63.679,99.072 h -5.214 c -0.706,0 -1.317,0.257 -1.833,0.773 -0.516,0.516 -0.774,1.127 -0.774,1.833 v 5.214 c 0,0.707 0.258,1.317 0.774,1.834 0.516,0.516 1.127,0.773 1.833,0.773 h 5.214 c 0.706,0 1.317,-0.257 1.833,-0.773 0.516,-0.517 0.774,-1.127 0.774,-1.834 v -5.214 c 0,-0.706 -0.258,-1.317 -0.774,-1.833 -0.516,-0.515 -1.127,-0.773 -1.833,-0.773 z"
       id="path7"
       inkscape:connector-curvature="0"
       style="fill:#9d9d9d;fill-opacity:1" /><path
       d="m 63.679,78.214 h -5.214 c -0.706,0 -1.317,0.259 -1.833,0.774 -0.516,0.516 -0.774,1.127 -0.774,1.833 v 5.215 c 0,0.706 0.258,1.315 0.774,1.833 0.516,0.515 1.127,0.773 1.833,0.773 h 5.214 c 0.706,0 1.317,-0.258 1.833,-0.773 0.516,-0.518 0.774,-1.127 0.774,-1.833 v -5.215 c 0,-0.706 -0.258,-1.318 -0.774,-1.833 -0.516,-0.515 -1.127,-0.774 -1.833,-0.774 z"
       id="path9"
       inkscape:connector-curvature="0"
       style="fill:#9d9d9d;fill-opacity:1" /><path
       d="m 63.679,57.358 h -5.214 c -0.706,0 -1.317,0.257 -1.833,0.773 -0.516,0.517 -0.774,1.127 -0.774,1.833 v 5.215 c 0,0.706 0.258,1.317 0.774,1.833 0.516,0.515 1.127,0.774 1.833,0.774 h 5.214 c 0.706,0 1.317,-0.258 1.833,-0.774 0.516,-0.516 0.774,-1.127 0.774,-1.833 v -5.215 c 0,-0.706 -0.258,-1.317 -0.774,-1.833 -0.516,-0.515 -1.127,-0.773 -1.833,-0.773 z"
       id="path11"
       inkscape:connector-curvature="0"
       style="fill:#9d9d9d;fill-opacity:1" /><path
       d="M 157.535,99.072 H 79.321 c -0.706,0 -1.317,0.257 -1.833,0.773 -0.516,0.516 -0.774,1.127 -0.774,1.833 v 5.214 c 0,0.707 0.258,1.317 0.774,1.834 0.516,0.516 1.127,0.773 1.833,0.773 h 78.215 c 0.707,0 1.317,-0.257 1.834,-0.773 0.515,-0.517 0.772,-1.127 0.772,-1.834 v -5.214 c 0,-0.706 -0.258,-1.317 -0.773,-1.833 -0.515,-0.516 -1.127,-0.773 -1.834,-0.773 z"
       id="path13"
       inkscape:connector-curvature="0"
       style="fill:#9d9d9d;fill-opacity:1" /><path
       d="M 157.535,78.214 H 79.321 c -0.706,0 -1.317,0.259 -1.833,0.774 -0.516,0.516 -0.774,1.127 -0.774,1.833 v 5.215 c 0,0.706 0.258,1.315 0.774,1.833 0.516,0.515 1.127,0.773 1.833,0.773 h 78.215 c 0.707,0 1.317,-0.258 1.834,-0.773 0.515,-0.518 0.772,-1.127 0.772,-1.833 v -5.215 c 0,-0.706 -0.258,-1.318 -0.773,-1.833 -0.515,-0.515 -1.127,-0.774 -1.834,-0.774 z"
       id="path15"
       inkscape:connector-curvature="0"
       style="fill:#9d9d9d;fill-opacity:1" /><path
       d="M 157.535,57.358 H 79.321 c -0.706,0 -1.317,0.257 -1.833,0.773 -0.516,0.517 -0.774,1.127 -0.774,1.833 v 5.215 c 0,0.706 0.258,1.318 0.774,1.833 0.516,0.515 1.127,0.774 1.833,0.774 h 78.215 c 0.707,0 1.319,-0.258 1.834,-0.774 0.515,-0.516 0.772,-1.127 0.772,-1.833 v -5.215 c 0,-0.706 -0.258,-1.317 -0.773,-1.833 -0.515,-0.515 -1.127,-0.773 -1.834,-0.773 z"
       id="path17"
       inkscape:connector-curvature="0"
       style="fill:#9d9d9d;fill-opacity:1" /></g></svg>